<?xml version="1.0" standalone="no"?>
<!DOCTYPE svg PUBLIC "-//W3C//DTD SVG 20010904//EN"
 "http://www.w3.org/TR/2001/REC-SVG-20010904/DTD/svg10.dtd">
<svg version="1.0" xmlns="http://www.w3.org/2000/svg"
 width="756.000000pt" height="213.000000pt" viewBox="0 0 756.000000 213.000000"
 preserveAspectRatio="xMidYMid meet">

<g transform="translate(0.000000,213.000000) scale(0.100000,-0.100000)"
fill="#000000" stroke="none">
<path d="M2496 1795 c57 -189 87 -397 70 -488 -14 -76 -80 -121 -216 -151 -82
-18 -261 -35 -380 -37 l-75 -1 90 -15 c139 -22 424 -22 505 0 84 23 146 60
166 99 27 52 14 180 -31 308 -31 89 -147 345 -129 285z"/>
<path d="M2891 1773 c-2 -22 49 -276 71 -353 22 -80 57 -158 83 -184 36 -36
186 -15 387 53 97 33 309 114 305 117 -1 1 -56 -7 -122 -18 -81 -13 -176 -20
-290 -21 -158 -2 -173 0 -211 20 -73 39 -142 150 -195 313 -15 47 -28 79 -28
73z"/>
<path d="M2260 1381 c0 -5 6 -11 12 -13 8 -3 12 -19 10 -41 -2 -22 1 -37 7
-37 6 0 11 18 11 40 0 29 4 40 15 40 8 0 15 5 15 10 0 6 -16 10 -35 10 -19 0
-35 -4 -35 -9z"/>
<path d="M2377 1343 c3 -62 4 -64 13 -28 l7 30 12 -30 13 -30 11 25 c10 25 10
25 14 3 8 -42 23 -23 23 27 0 54 -14 65 -32 25 -6 -14 -15 -25 -19 -25 -4 0
-10 11 -13 25 -11 45 -32 29 -29 -22z"/>
<path d="M3694 1036 c-77 -34 -51 -123 40 -140 19 -4 40 -14 47 -22 11 -14 10
-18 -6 -30 -24 -18 -33 -17 -68 1 -23 11 -32 12 -48 2 -26 -16 -24 -24 11 -42
47 -24 116 -20 145 10 50 49 24 102 -62 130 -56 18 -62 25 -37 46 12 10 22 10
50 0 27 -10 38 -10 49 -1 23 19 18 26 -25 44 -48 19 -56 19 -96 2z"/>
<path d="M5193 1036 c-74 -33 -87 -164 -22 -225 34 -32 108 -29 139 5 21 21
22 27 10 34 -20 13 -27 12 -55 -6 -62 -41 -115 65 -64 130 23 29 50 33 73 11
12 -12 20 -14 36 -5 26 14 25 26 -3 45 -35 22 -78 27 -114 11z"/>
<path d="M2880 1020 c0 -16 7 -20 35 -20 l35 0 0 -105 c0 -105 0 -105 25 -105
24 0 24 1 27 103 l3 102 38 3 c29 3 37 7 37 23 0 18 -8 19 -100 19 -93 0 -100
-1 -100 -20z"/>
<path d="M3130 915 l0 -125 25 0 c23 0 25 4 25 45 0 41 2 45 25 45 20 0 30 -9
47 -45 18 -37 27 -45 50 -45 33 0 33 0 7 51 l-20 41 20 22 c29 30 28 89 -1
116 -18 17 -35 20 -100 20 l-78 0 0 -125z m134 72 c10 -7 17 -22 14 -33 -2
-15 -13 -20 -51 -22 l-47 -3 0 35 c0 34 2 36 33 36 18 0 41 -6 51 -13z"/>
<path d="M3380 960 c0 -127 27 -170 105 -170 78 0 105 43 105 170 0 79 0 80
-25 80 -25 0 -25 -1 -25 -85 0 -72 -3 -88 -20 -105 -11 -11 -27 -20 -35 -20
-8 0 -24 9 -35 20 -17 17 -20 33 -20 105 0 84 0 85 -25 85 -25 0 -25 -1 -25
-80z"/>
<path d="M3870 1020 c0 -16 7 -20 35 -20 l35 0 0 -105 c0 -105 0 -105 25 -105
24 0 24 1 27 103 l3 102 33 3 c24 2 32 8 32 23 0 17 -8 19 -95 19 -88 0 -95
-1 -95 -20z"/>
<path d="M4220 916 l0 -126 26 0 c25 0 26 1 22 65 -1 36 0 65 3 65 3 0 20 -30
36 -67 l31 -68 24 55 c14 30 29 64 34 75 6 15 10 1 12 -52 3 -70 4 -73 27 -73
l25 0 0 125 0 125 -30 0 c-16 0 -30 -4 -30 -9 0 -5 -14 -39 -31 -76 l-32 -67
-32 74 c-27 61 -36 73 -59 76 l-26 3 0 -125z"/>
<path d="M4520 915 l0 -125 90 0 c89 0 90 0 90 25 0 24 -2 25 -65 25 l-65 0 0
30 c0 28 2 30 40 30 36 0 40 3 40 25 0 23 -4 25 -41 25 -36 0 -40 2 -37 23 3
20 9 22 66 25 54 3 62 6 62 22 0 18 -7 20 -90 20 l-90 0 0 -125z"/>
<path d="M4760 916 l0 -126 55 0 c102 0 145 40 145 132 0 46 -5 62 -24 85 -21
25 -31 28 -100 31 l-76 4 0 -126z m102 74 c85 -24 64 -150 -24 -150 l-28 0 0
80 c0 44 3 80 8 80 4 0 23 -5 44 -10z"/>
<path d="M5020 915 l0 -125 25 0 25 0 0 125 0 125 -25 0 -25 0 0 -125z"/>
<path d="M5456 1031 c-4 -5 -26 -61 -50 -125 l-44 -116 27 0 c20 0 29 7 38 30
10 27 15 30 56 30 41 0 46 -3 56 -30 8 -23 16 -30 36 -30 31 0 32 -6 -27 148
-35 90 -42 102 -63 102 -13 0 -26 -4 -29 -9z m53 -133 c1 -5 -10 -8 -24 -8
-28 0 -31 13 -14 57 l11 28 13 -35 c8 -19 14 -38 14 -42z"/>
<path d="M5650 915 l0 -125 90 0 c89 0 90 0 90 25 0 24 -2 25 -65 25 l-65 0 0
100 0 100 -25 0 -25 0 0 -125z"/>
<path d="M2692 784 c-111 -42 -421 -92 -582 -95 l-55 -1 50 -14 c102 -30 385
-29 566 2 34 6 36 5 47 -33 31 -105 175 -354 261 -453 l30 -35 -18 40 c-26 55
-142 377 -182 507 -19 59 -38 107 -44 107 -5 -1 -38 -12 -73 -25z"/>
</g>
</svg>
